<svg version="1" xmlns="http://www.w3.org/2000/svg" width="682.667" height="682.667" viewBox="0 0 512.000000 512.000000"><path d="M239.5 8c-8.8 4.4-26.1 12.8-38.5 18.9-12.4 6-36 17.6-52.5 25.7-16.5 8-38.5 18.8-49 23.9-10.4 5.1-28.6 14-40.4 19.7l-21.3 10.5 3.7 2.1c2 1.2 3.8 2.2 3.9 2.2.2 0 12.9 6.1 28.2 13.6 15.4 7.5 36.5 17.8 46.9 22.9 10.5 5.1 31.6 15.4 47 23 15.4 7.5 32.5 15.9 38 18.5 5.5 2.6 18.7 9.1 29.3 14.4 10.7 5.3 20.2 9.6 21.2 9.6s6.9-2.5 13.1-5.6c16.2-8 57-28 79.4-38.9 22.8-11.1 50.2-24.5 92.4-45.1 17.2-8.5 31.7-15.4 32.3-15.4 2.7 0-1.9-2.7-17.5-10.3C430 85 391.9 66.4 371 56.2c-10.2-4.9-31.1-15.2-46.5-22.7C288.4 15.8 255.8 0 255.6.1c0 0-7.3 3.6-16.1 7.9zM22 264.8v138.8l12.3 5.9c6.7 3.2 27.5 13.4 46.2 22.5 18.7 9.2 41.4 20.3 50.5 24.8 9.1 4.4 29.6 14.4 45.5 22.2 16 7.8 35.1 17.2 42.5 20.7 7.4 3.6 16.1 7.8 19.3 9.4l5.7 2.9V234.5l-13.8-6.7c-23.7-11.5-62.9-30.7-135.2-66-13.5-6.6-31.9-15.6-41-20-9.1-4.4-20-9.8-24.2-11.9L22 126v138.8zM467.5 137c-23.2 11.4-65.8 32.3-96 47-9.9 4.8-32.2 15.7-49.5 24.2-17.3 8.5-36.6 17.8-42.7 20.8l-11.3 5.5V512l3.8-1.9c2-1 11.6-5.7 21.2-10.4 9.6-4.6 28.8-14 42.5-20.7 13.8-6.7 32.2-15.7 41-20 8.8-4.3 31.1-15.2 49.5-24.2s40.4-19.7 48.8-23.8l15.2-7.4V264.8c0-76.3-.1-138.8-.2-138.7-.2 0-10.2 4.9-22.3 10.9z"/></svg>